# xmcd CD database file
#
# Track frame offsets:
#	150
#	15236
#	28577
#	40850
#	56705
#	69523
#	84401
#	100630
#	111732
#	125108
#	136570
#	144301
#	154740
#	174438
#	185525
#
# Disc length: 2791 seconds
#
# Revision: 6
# Processed by: cddbd v1.5.2PL0 Copyright (c) Steve Scherf et al.
# Submitted via: CDex 1.70beta2
#
DISCID=c20ae50f
DTITLE=Various Artist - The Best Smooth Jazz... Ever 2.2
DYEAR=2005
DGENRE=Jazz
TTITLE0=Peggy Lee - Fever
TTITLE1=Dionne Wawrick - Walk On By
TTITLE2=Dean Martin - Sway
TTITLE3=Aretha Franklin - I Say A Little Prayer
TTITLE4=Kay Starr - I Cry By Night
TTITLE5=Norah Jones - Come Away With Me
TTITLE6=Joss Stone - The Chokin' Kind
TTITLE7=Nat King Cole - Bidin' My Time
TTITLE8=Nancy Wilson - The Nearness Of You
TTITLE9=Les Baxter - Unchained Melody
TTITLE10=George Michael - My Baby Just Cares For Me
TTITLE11=Angela McCluskey - I Came Aching
TTITLE12=Randy Crafword - Rainy Night In Georgia
TTITLE13=Bryan Ferry - Falling In Love Again
TTITLE14=Dianne Reeves - In A Sentimental Mood
EXTD=YEAR: 2005
EXTT0=
EXTT1=
EXTT2=
EXTT3=
EXTT4=
EXTT5=
EXTT6=
EXTT7=
EXTT8=
EXTT9=
EXTT10=
EXTT11=
EXTT12=
EXTT13=
EXTT14=
PLAYORDER=
